<mxfile host="65bd71144e">
    <diagram id="1b_3oFGGnycCYKdfAMop" name="Page-1">
        <mxGraphModel dx="1222" dy="639" grid="1" gridSize="10" guides="1" tooltips="1" connect="1" arrows="1" fold="1" page="1" pageScale="1" pageWidth="850" pageHeight="1100" background="#FFFFFF" math="0" shadow="0">
            <root>
                <mxCell id="0"/>
                <mxCell id="1" parent="0"/>
                <mxCell id="12" value="" style="group" vertex="1" connectable="0" parent="1">
                    <mxGeometry x="20" y="10" width="720" height="480" as="geometry"/>
                </mxCell>
                <mxCell id="2" value="" style="rounded=0;whiteSpace=wrap;html=1;" vertex="1" parent="12">
                    <mxGeometry width="720" height="480.00000000000006" as="geometry"/>
                </mxCell>
                <mxCell id="3" value="Request Your Account" style="text;html=1;align=center;verticalAlign=middle;resizable=0;points=[];autosize=1;strokeColor=none;fillColor=none;fontSize=20;fontStyle=1" vertex="1" parent="12">
                    <mxGeometry x="250.00181818181818" y="27" width="220" height="40" as="geometry"/>
                </mxCell>
                <mxCell id="4" value="Lorem ipsum dolor sit amet, consectetur adipiscing elit. Phasellus neque felis, commodo non diam at&lt;div&gt;molestie posuere metus. Morbi nibh tortor, tempus ac varius quis, finibus vel eros.&lt;/div&gt;" style="text;html=1;align=center;verticalAlign=middle;resizable=0;points=[];autosize=1;strokeColor=none;fillColor=none;fontSize=12;" vertex="1" parent="12">
                    <mxGeometry x="80.00363636363636" y="80" width="560" height="40" as="geometry"/>
                </mxCell>
                <mxCell id="5" value="&lt;font style=&quot;font-size: 10px;&quot;&gt;Lorem Ipsum&lt;/font&gt;" style="rounded=1;whiteSpace=wrap;html=1;align=left;" vertex="1" parent="12">
                    <mxGeometry x="52.36" y="160" width="274.91" height="30" as="geometry"/>
                </mxCell>
                <mxCell id="6" value="&lt;span style=&quot;color: rgb(63, 63, 63);&quot;&gt;&lt;font style=&quot;font-size: 10px;&quot;&gt;Lorem Ipsum&lt;/font&gt;&lt;/span&gt;" style="rounded=1;whiteSpace=wrap;html=1;align=left;" vertex="1" parent="12">
                    <mxGeometry x="392.73" y="160" width="274.91" height="30" as="geometry"/>
                </mxCell>
                <mxCell id="7" value="&lt;span style=&quot;color: rgb(63, 63, 63);&quot;&gt;&lt;font style=&quot;font-size: 10px;&quot;&gt;Lorem Ipsum&lt;/font&gt;&lt;/span&gt;" style="rounded=1;whiteSpace=wrap;html=1;align=left;" vertex="1" parent="12">
                    <mxGeometry x="52.36" y="200" width="274.91" height="30.4" as="geometry"/>
                </mxCell>
                <mxCell id="8" value="&lt;span style=&quot;color: rgb(63, 63, 63);&quot;&gt;&lt;font style=&quot;font-size: 10px;&quot;&gt;Lorem Ipsum&lt;/font&gt;&lt;/span&gt;" style="rounded=1;whiteSpace=wrap;html=1;align=left;" vertex="1" parent="12">
                    <mxGeometry x="52.36" y="240" width="274.91" height="29.2" as="geometry"/>
                </mxCell>
                <mxCell id="9" value="&lt;span style=&quot;color: rgb(63, 63, 63);&quot;&gt;&lt;font style=&quot;font-size: 10px;&quot;&gt;Lorem Ipsum&lt;/font&gt;&lt;/span&gt;" style="rounded=1;whiteSpace=wrap;html=1;align=left;" vertex="1" parent="12">
                    <mxGeometry x="52.36" y="280" width="274.91" height="28" as="geometry"/>
                </mxCell>
                <mxCell id="10" value="&lt;span style=&quot;color: rgb(63, 63, 63);&quot;&gt;&lt;font style=&quot;font-size: 10px;&quot;&gt;Lorem Ipsum&lt;/font&gt;&lt;/span&gt;" style="rounded=1;whiteSpace=wrap;html=1;align=left;" vertex="1" parent="12">
                    <mxGeometry x="392.73" y="200" width="274.91" height="30.4" as="geometry"/>
                </mxCell>
                <mxCell id="11" value="&lt;font size=&quot;1&quot;&gt;Register&lt;/font&gt;" style="rounded=1;whiteSpace=wrap;html=1;align=center;" vertex="1" parent="12">
                    <mxGeometry x="190" y="340" width="366.55" height="30" as="geometry"/>
                </mxCell>
            </root>
        </mxGraphModel>
    </diagram>
</mxfile>